<svg xmlns="http://www.w3.org/2000/svg" xmlns:xlink="http://www.w3.org/1999/xlink" width="500" height="500" viewBox="0 0 500 500"><defs><clipPath id="b"><rect width="500" height="500"/></clipPath></defs><g id="a" clip-path="url(#b)"><rect width="500" height="500" fill="rgba(255,255,255,0)"/><g transform="translate(50 46)" fill="#fff" stroke="#707070" stroke-width="1"><rect width="400" height="408" stroke="none"/><rect x="0.5" y="0.5" width="399" height="407" fill="none"/></g><path d="M74.5,36A38.5,38.5,0,0,0,36,74.5v363A38.5,38.5,0,0,0,74.5,476h363A38.5,38.5,0,0,0,476,437.5V74.5A38.5,38.5,0,0,0,437.5,36ZM256,206a50,50,0,1,1-50,50A50,50,0,0,1,256,206Z" transform="translate(-6 -6)" fill="#70c6ff" stroke="#181f3b" stroke-linecap="round" stroke-linejoin="bevel" stroke-width="18"/></g></svg>